Coordinates
version=1
nRows=34
nColumns=38
inDegrees=no

Units are S.I. units (second, meters, Newtons, ...)
If the header above contains a line with 'inDegrees', this indicates whether rotational values are in degrees (yes) or radians (no).

endheader
time	pelvis_tilt	pelvis_list	pelvis_rotation	pelvis_tx	pelvis_ty	pelvis_tz	hip_flexion_r	hip_adduction_r	hip_rotation_r	knee_angle_r	ankle_angle_r	subtalar_angle_r	mtp_angle_r	hip_flexion_l	hip_adduction_l	hip_rotation_l	knee_angle_l	ankle_angle_l	subtalar_angle_l	mtp_angle_l	lumbar_extension	lumbar_bending	lumbar_rotation	arm_flex_r	arm_add_r	arm_rot_r	elbow_flex_r	pro_sup_r	wrist_flex_r	wrist_dev_r	arm_flex_l	arm_add_l	arm_rot_l	elbow_flex_l	pro_sup_l	wrist_flex_l	wrist_dev_l
23.4	3.04407	1.39641	-1.36077	0.641141	-0.533994	0.947291	0.24199	-0.190857	-0.439004	0.758908	0.0498632	0	0	-0.0856108	-0.0459457	-0.353807	0.265183	0.044046	0	0	-0.51926	0.0607046	-0.123783	1.22418	-0.349117	0.621704	0.777143	1.5708	0	0	1.06269	-0.295339	0.380326	1.25057	0.257409	0	0
23.41	3.05945	1.39851	-1.37307	0.642031	-0.534263	0.947303	0.23213	-0.196547	-0.434605	0.76012	0.0556909	0	0	-0.0855737	-0.0431547	-0.35083	0.260051	0.040935	0	0	-0.515245	0.06037	-0.126145	1.21576	-0.349932	0.613878	0.788815	1.5708	0	0	1.0541	-0.297525	0.376531	1.25822	0.259828	0	0
23.42	3.07566	1.4008	-1.38621	0.643102	-0.534516	0.947266	0.221723	-0.200998	-0.428858	0.760261	0.0603426	0	0	-0.0850215	-0.0405055	-0.347976	0.255484	0.0381516	0	0	-0.511132	0.0596174	-0.128391	1.20629	-0.350727	0.605198	0.802045	1.5708	0	0	1.0458	-0.30013	0.37339	1.26614	0.262293	0	0
23.43	3.09322	1.40332	-1.40057	0.644285	-0.534745	0.947178	0.210655	-0.204549	-0.422781	0.758992	0.0620904	0	0	-0.0841456	-0.0377633	-0.344959	0.251021	0.0347842	0	0	-0.506993	0.0586348	-0.130525	1.19637	-0.351793	0.597415	0.816243	1.5708	0	0	1.0376	-0.302937	0.37025	1.27426	0.26484	0	0
23.44	3.02522	1.39763	-1.32972	0.644787	-0.536495	0.949239	0.184876	-0.194899	-0.440644	0.739801	0.0440051	0	0	-0.0868392	-0.0514386	-0.339663	0.247345	0.0282975	0	0	-0.514662	0.0770004	-0.125334	1.19465	-0.354952	0.593905	0.830826	1.5708	0	0	1.02983	-0.301582	0.35853	1.28308	0.273991	0	0
23.45	3.13035	1.40721	-1.43049	0.646888	-0.535105	0.947093	0.183019	-0.209267	-0.413771	0.749288	0.0481944	0	0	-0.0836624	-0.0332277	-0.339106	0.242152	0.0279028	0	0	-0.500254	0.0566662	-0.134644	1.17623	-0.354722	0.583114	0.844681	1.5708	0	0	1.02152	-0.308425	0.363241	1.29093	0.275831	0	0
23.46	-3.1266	1.41048	-1.45422	0.648481	-0.535197	0.946849	0.170142	-0.212201	-0.409594	0.742527	0.0298518	0	0	-0.0823445	-0.0298015	-0.337563	0.237722	0.0245415	0	0	-0.49561	0.0534037	-0.136143	1.16498	-0.356017	0.574438	0.859882	1.5708	0	0	1.01348	-0.311883	0.360943	1.29958	0.27785	0	0
23.47	-3.10703	1.42416	-1.46054	0.650056	-0.537267	0.945635	0.169607	-0.214129	-0.411512	0.736819	0.00450468	0	0	-0.0667914	-0.0286839	-0.342882	0.228927	0.0182357	0	0	-0.483805	0.0530809	-0.146343	1.15462	-0.355628	0.561069	0.875486	1.5708	0	0	1.01117	-0.316539	0.360957	1.3071	0.279827	0	0
23.48	-3.0693	1.41589	-1.5058	0.651904	-0.535307	0.946351	0.139486	-0.215759	-0.405451	0.721536	-0.0122437	0	0	-0.0809812	-0.0228035	-0.333336	0.227981	0.0178911	0	0	-0.487675	0.0463568	-0.138818	1.1407	-0.358623	0.55283	0.894207	1.5708	0	0	0.99751	-0.316865	0.353482	1.31534	0.283561	0	0
23.49	-3.03822	1.41949	-1.53485	0.653917	-0.535398	0.945906	0.124675	-0.21569	-0.402052	0.708896	-0.00617908	0	0	-0.0788194	-0.0195778	-0.332344	0.223874	0.014897	0	0	-0.482716	0.0418429	-0.139466	1.12737	-0.359867	0.541269	0.913396	1.5708	0	0	0.989988	-0.319935	0.351041	1.32253	0.287373	0	0
23.5	-3.00685	1.42416	-1.56495	0.656323	-0.535444	0.945257	0.11031	-0.213077	-0.398622	0.690166	0.0138721	0	0	-0.0748175	-0.0174841	-0.332995	0.221117	0.012936	0	0	-0.476452	0.0366411	-0.139247	1.11291	-0.360747	0.528495	0.933665	1.5708	0	0	0.982925	-0.323756	0.349972	1.32971	0.290477	0	0
23.51	-2.97654	1.42759	-1.59355	0.658897	-0.535362	0.944736	0.0925052	-0.209653	-0.403241	0.661271	0.0329927	0	0	-0.0720476	-0.0162819	-0.333415	0.218425	0.0109592	0	0	-0.471322	0.0317153	-0.13892	1.09759	-0.361577	0.514701	0.954637	1.5708	0	0	0.976215	-0.327185	0.348497	1.33658	0.293122	0	0
23.52	-2.94907	1.43009	-1.61931	0.661606	-0.535284	0.944338	0.0736638	-0.205653	-0.414741	0.626651	0.0428786	0	0	-0.069936	-0.0157888	-0.333326	0.21627	0.00912888	0	0	-0.467355	0.0272352	-0.137621	1.08207	-0.362795	0.500201	0.975479	1.5708	0	0	0.970027	-0.329963	0.34671	1.34344	0.295387	0	0
23.53	-2.92729	1.43285	-1.63985	0.66453	-0.535319	0.943961	0.056458	-0.199682	-0.427995	0.590395	0.0489175	0	0	-0.0670794	-0.0163432	-0.33247	0.21461	0.00694694	0	0	-0.463734	0.0235048	-0.134892	1.06687	-0.364607	0.486429	0.995924	1.5708	0	0	0.964229	-0.33223	0.344219	1.35115	0.297989	0	0
23.54	-2.91462	1.43636	-1.65213	0.667687	-0.535528	0.94362	0.0425096	-0.190974	-0.44021	0.557215	0.0548976	0	0	-0.0622827	-0.0188941	-0.332359	0.214813	0.00501349	0	0	-0.460135	0.0208479	-0.130543	1.05248	-0.367074	0.474886	1.01532	1.5708	0	0	0.958768	-0.333727	0.340493	1.35912	0.300585	0	0
23.55	-2.91786	1.43943	-1.6486	0.670794	-0.535941	0.943608	0.0307806	-0.180347	-0.454806	0.529732	0.0611074	0	0	-0.05728	-0.0238073	-0.332588	0.216059	0.0022036	0	0	-0.458095	0.0208209	-0.12522	1.03972	-0.369853	0.465237	1.03401	1.5708	0	0	0.95314	-0.334208	0.334722	1.36737	0.303218	0	0
23.56	-2.93779	1.44144	-1.62801	0.673707	-0.536387	0.943962	0.0191964	-0.16751	-0.471018	0.504551	0.0636884	0	0	-0.0536521	-0.0305989	-0.331737	0.217067	-0.000536526	0	0	-0.457753	0.0236432	-0.119781	1.02875	-0.372545	0.457555	1.05204	1.5708	0	0	0.946739	-0.334086	0.32726	1.37559	0.305513	0	0
23.57	-2.96862	1.4424	-1.59701	0.676654	-0.536763	0.944578	0.00651163	-0.151674	-0.48433	0.477335	0.0615465	0	0	-0.0514568	-0.0386574	-0.33115	0.217664	-0.0035378	0	0	-0.458655	0.0276324	-0.113897	1.01855	-0.374833	0.450508	1.07017	1.5708	0	0	0.939889	-0.334323	0.319739	1.38317	0.307449	0	0
23.58	-3.00092	1.44311	-1.56507	0.679638	-0.537044	0.945264	-0.00628661	-0.134837	-0.493582	0.449309	0.0572937	0	0	-0.0495437	-0.0467381	-0.330639	0.218056	-0.0070392	0	0	-0.459555	0.0314716	-0.108027	1.00863	-0.376819	0.444459	1.08858	1.5708	0	0	0.932716	-0.334921	0.312393	1.38974	0.308686	0	0
23.59	-3.02842	1.44473	-1.5381	0.682556	-0.537385	0.945873	-0.0164196	-0.119832	-0.499689	0.424132	0.0539102	0	0	-0.0456376	-0.0541976	-0.330531	0.219877	-0.010817	0	0	-0.459443	0.0347059	-0.102797	0.999465	-0.378294	0.439368	1.10646	1.5708	0	0	0.925687	-0.336098	0.305377	1.39561	0.309024	0	0
23.6	-3.05228	1.44792	-1.51503	0.685409	-0.537843	0.946316	-0.0225378	-0.107451	-0.502599	0.402521	0.050832	0	0	-0.0389654	-0.0612381	-0.331131	0.223473	-0.0142126	0	0	-0.457643	0.037375	-0.0981422	0.991147	-0.379462	0.435332	1.12374	1.5708	0	0	0.918841	-0.337407	0.298151	1.40094	0.308232	0	0
23.61	-3.07101	1.45276	-1.49747	0.688273	-0.538407	0.946543	-0.0243388	-0.098223	-0.50269	0.385363	0.047421	0	0	-0.029995	-0.0674983	-0.331914	0.227906	-0.0174037	0	0	-0.45407	0.038961	-0.093918	0.983434	-0.38027	0.432118	1.14015	1.5708	0	0	0.912557	-0.339407	0.292977	1.40584	0.306053	0	0
23.62	-3.08739	1.45889	-1.4822	0.691116	-0.539045	0.946564	-0.0224413	-0.091613	-0.502065	0.373157	0.044608	0	0	-0.0185909	-0.0736963	-0.333206	0.234273	-0.0194044	0	0	-0.448977	0.0399777	-0.0902788	0.976283	-0.380608	0.429783	1.15501	1.5708	0	0	0.906202	-0.342546	0.288714	1.41137	0.304704	0	0
23.63	-3.10522	1.46551	-1.4651	0.693972	-0.539678	0.946418	-0.0187816	-0.0859429	-0.501504	0.363781	0.0424072	0	0	-0.00603354	-0.0801575	-0.333713	0.241754	-0.0202314	0	0	-0.443037	0.0408293	-0.0871703	0.969564	-0.380837	0.42879	1.16826	1.5708	0	0	0.899686	-0.346103	0.283748	1.4178	0.305133	0	0
23.64	-3.1244	1.47161	-1.44599	0.696829	-0.540275	0.946243	-0.0153987	-0.0803333	-0.502397	0.355348	0.0410511	0	0	0.00650629	-0.0868032	-0.33358	0.25005	-0.0209446	0	0	-0.437395	0.0415968	-0.0847623	0.963171	-0.38112	0.429107	1.18042	1.5708	0	0	0.893341	-0.349908	0.278408	1.42489	0.307431	0	0
23.65	3.13937	1.47673	-1.42534	0.699522	-0.54079	0.946103	-0.0136102	-0.0744865	-0.506037	0.346602	0.0394127	0	0	0.0184683	-0.0937261	-0.333715	0.259247	-0.021646	0	0	-0.43244	0.0425631	-0.0833028	0.95632	-0.381978	0.430032	1.19324	1.5708	0	0	0.887408	-0.353513	0.273371	1.43187	0.311015	0	0
23.66	3.12087	1.48049	-1.40468	0.702127	-0.541171	0.945971	-0.0141886	-0.0679898	-0.511242	0.337095	0.0389228	0	0	0.0290855	-0.100871	-0.334003	0.26897	-0.0216773	0	0	-0.428385	0.0435284	-0.0824388	0.948929	-0.382962	0.430846	1.20635	1.5708	0	0	0.882072	-0.357218	0.269431	1.43817	0.314875	0	0
23.67	3.10353	1.48284	-1.3848	0.704678	-0.541389	0.94585	-0.017346	-0.0603902	-0.515796	0.325655	0.038517	0	0	0.0380643	-0.107868	-0.333589	0.278447	-0.021392	0	0	-0.425225	0.0444376	-0.0817601	0.941205	-0.38388	0.431371	1.21922	1.5708	0	0	0.877509	-0.360672	0.266371	1.44285	0.317469	0	0
23.68	3.08839	1.48416	-1.36711	0.707125	-0.541564	0.945756	-0.0220189	-0.0522366	-0.518805	0.312694	0.0371386	0	0	0.0457152	-0.114484	-0.333005	0.287444	-0.0209631	0	0	-0.422919	0.0451573	-0.0808738	0.93352	-0.384903	0.431534	1.23157	1.5708	0	0	0.873547	-0.36374	0.263909	1.44639	0.318207	0	0
23.69	3.07733	1.48493	-1.35367	0.709468	-0.541748	0.945649	-0.0268137	-0.0446548	-0.52082	0.300435	0.0353998	0	0	0.0522791	-0.120379	-0.332077	0.295733	-0.0200689	0	0	-0.421145	0.0454857	-0.0798739	0.925783	-0.385941	0.431045	1.24364	1.5708	0	0	0.869958	-0.366668	0.261787	1.44957	0.317243	0	0
23.7	3.06973	1.4854	-1.344	0.711728	-0.541911	0.945502	-0.0309916	-0.0380922	-0.521805	0.290138	0.0343548	0	0	0.0580871	-0.125452	-0.330495	0.303462	-0.0187384	0	0	-0.419508	0.0454176	-0.0788233	0.91791	-0.386814	0.43021	1.25499	1.5708	0	0	0.866221	-0.369469	0.259509	1.45276	0.31504	0	0
23.71	3.06886	1.48511	-1.3414	0.713826	-0.542045	0.945441	-0.0354696	-0.0323535	-0.520958	0.280596	0.0333418	0	0	0.0624533	-0.129344	-0.328627	0.310208	-0.0180687	0	0	-0.418656	0.04504	-0.078011	0.910191	-0.38733	0.429363	1.26572	1.5708	0	0	0.861675	-0.372165	0.256384	1.45665	0.312307	0	0
23.72	3.0704	1.4843	-1.34171	0.715852	-0.54214	0.945442	-0.0399518	-0.02713	-0.519384	0.272192	0.032399	0	0	0.0659559	-0.132848	-0.327139	0.316596	-0.0170227	0	0	-0.418316	0.0444582	-0.0770507	0.902239	-0.387093	0.427595	1.27589	1.5708	0	0	0.856464	-0.374788	0.252796	1.46092	0.309522	0	0
23.73	3.0757	1.48278	-1.34636	0.71781	-0.542154	0.945515	-0.0448168	-0.0226597	-0.518167	0.265035	0.030788	0	0	0.0677716	-0.135599	-0.325249	0.321775	-0.0153936	0	0	-0.418648	0.0435524	-0.0758924	0.893935	-0.386203	0.424742	1.28561	1.5708	0	0	0.850494	-0.377374	0.248655	1.46594	0.307348	0	0
